<svg xmlns="http://www.w3.org/2000/svg" viewBox="0 0 1200 675" width="1200" height="675" role="img" aria-label="طرح انتزاعی"><defs><linearGradient id="bg" x1="1" y1="0" x2="0" y2="1"><stop offset="0" stop-color="#0e1b33"/><stop offset="1" stop-color="#0a1428"/></linearGradient></defs><rect width="1200" height="675" fill="url(#bg)"/><g stroke="#ffffff" stroke-opacity="0.04" stroke-width="1"><line x1="80" y1="0" x2="80" y2="675"/><line x1="160" y1="0" x2="160" y2="675"/><line x1="240" y1="0" x2="240" y2="675"/><line x1="320" y1="0" x2="320" y2="675"/><line x1="400" y1="0" x2="400" y2="675"/><line x1="480" y1="0" x2="480" y2="675"/><line x1="560" y1="0" x2="560" y2="675"/><line x1="640" y1="0" x2="640" y2="675"/><line x1="720" y1="0" x2="720" y2="675"/><line x1="800" y1="0" x2="800" y2="675"/><line x1="880" y1="0" x2="880" y2="675"/><line x1="960" y1="0" x2="960" y2="675"/><line x1="1040" y1="0" x2="1040" y2="675"/><line x1="1120" y1="0" x2="1120" y2="675"/></g><rect x="26" y="26" width="1148" height="623" fill="none" stroke="#ffffff" stroke-opacity="0.260" stroke-width="1"/><rect x="59" y="48" width="1093" height="579" fill="none" stroke="#ffffff" stroke-opacity="0.244" stroke-width="1"/><rect x="92" y="70" width="1038" height="535" fill="none" stroke="#ffffff" stroke-opacity="0.228" stroke-width="1"/><rect x="125" y="92" width="983" height="491" fill="none" stroke="#c8a96a" stroke-opacity="0.75" stroke-width="1.5"/><rect x="158" y="114" width="928" height="447" fill="none" stroke="#ffffff" stroke-opacity="0.196" stroke-width="1"/><rect x="191" y="136" width="873" height="403" fill="none" stroke="#ffffff" stroke-opacity="0.180" stroke-width="1"/><rect x="224" y="158" width="818" height="359" fill="none" stroke="#ffffff" stroke-opacity="0.164" stroke-width="1"/><rect x="257" y="180" width="763" height="315" fill="none" stroke="#ffffff" stroke-opacity="0.148" stroke-width="1"/><rect x="290" y="202" width="708" height="271" fill="none" stroke="#ffffff" stroke-opacity="0.132" stroke-width="1"/><rect x="323" y="224" width="653" height="227" fill="none" stroke="#ffffff" stroke-opacity="0.116" stroke-width="1"/><rect x="356" y="246" width="598" height="183" fill="none" stroke="#ffffff" stroke-opacity="0.100" stroke-width="1"/><rect x="389" y="268" width="543" height="139" fill="none" stroke="#ffffff" stroke-opacity="0.084" stroke-width="1"/><rect x="422" y="290" width="488" height="95" fill="none" stroke="#ffffff" stroke-opacity="0.068" stroke-width="1"/><circle cx="125" cy="92" r="5" fill="#c8a96a"/></svg>